<?xml version="1.0" encoding="utf-8"?>
<!-- Generator: Adobe Illustrator 19.0.0, SVG Export Plug-In . SVG Version: 6.00 Build 0)  -->
<svg version="1.1"
	 id="svg10" xmlns:rdf="http://www.w3.org/1999/02/22-rdf-syntax-ns#" xmlns:svg="http://www.w3.org/2000/svg" xmlns:dc="http://purl.org/dc/elements/1.1/" xmlns:cc="http://creativecommons.org/ns#"
	 xmlns="http://www.w3.org/2000/svg" xmlns:xlink="http://www.w3.org/1999/xlink" x="0px" y="0px" viewBox="511.3 -198 763.2 980"
	 style="enable-background:new 511.3 -198 763.2 980;" xml:space="preserve">
<style type="text/css">
	.st0{fill:#FFFF66;stroke:#FFFFFF;stroke-width:3;stroke-miterlimit:10;}
	.st1{fill:#FF694E;stroke:#FFFFFF;stroke-width:3;stroke-miterlimit:10;}
	.st2{fill:#66CC66;stroke:#FFFFFF;stroke-width:3;stroke-miterlimit:10;}
	.st3{fill:#678CFF;stroke:#FFFFFF;stroke-width:3;stroke-miterlimit:10;}
</style>
<path d="M701.2,45.5c-104.4,134.4-189.9,245.1-189.9,246c0,2.2,379.4,490.5,381,490.5c0.6,0,81.1-102.9,178.9-228.8
	c97.6-125.9,183.5-236.1,190.5-245.3l12.8-16.5L1084.5,47C979.9-87.3,893.6-197.6,892.7-198C891.8-198.2,805.7-88.6,701.2,45.5z"/>
<path class="st0" d="M1052.8,82l121.1,182.9l-161.3,1c-88.5,0.3-161.8,0-162.5-0.9c-1.4-1.3,68.1-373,70.8-378
	c0.7-1.6,3.5,0.6,6.2,4.7C929.3-104.3,985.9-18.6,1052.8,82z"/>
<path class="st1" d="M816.9,102.8l-34.7,161h-87.7c-84.2,0-88.1-0.4-83.1-7c21.1-30.5,237.8-317.2,238.5-316.1
	C850.8-58.6,836.1,14.5,816.9,102.8z"/>
<path class="st2" d="M934.6,328.6c0,4.6-68.1,358.6-70.8,367.1C863.1,699.1,610,330.1,610,325.5c0-0.9,73.1-1.5,162.3-1.5
	C916.3,324,934.6,324.6,934.6,328.6z"/>
<path class="st3" d="M1176.4,328.2c0,1-230.2,269.6-239.6,279.5c-5.7,5.8-0.7-17.6,29.7-141.4l34.7-139.7h87.4
	C1136.8,326.5,1176.4,327.2,1176.4,328.2z"/>
</svg>
