<?xml version="1.0" encoding="UTF-8" standalone="no"?>
<svg
   xmlns:dc="http://purl.org/dc/elements/1.1/"
   xmlns:cc="http://creativecommons.org/ns#"
   xmlns:rdf="http://www.w3.org/1999/02/22-rdf-syntax-ns#"
   xmlns:svg="http://www.w3.org/2000/svg"
   xmlns="http://www.w3.org/2000/svg"
   xmlns:sodipodi="http://sodipodi.sourceforge.net/DTD/sodipodi-0.dtd"
   xmlns:inkscape="http://www.inkscape.org/namespaces/inkscape"
   height="452"
   width="836.65833"
   xml:space="preserve"
   viewBox="0 0 836.65832 452"
   y="0px"
   x="0px"
   id="Capa_1"
   version="1.1"
   sodipodi:docname="pillars (copy).svg"
   inkscape:version="0.92.4 (5da689c313, 2019-01-14)"><sodipodi:namedview
   pagecolor="#ffffff"
   bordercolor="#666666"
   borderopacity="1"
   objecttolerance="10"
   gridtolerance="10"
   guidetolerance="10"
   inkscape:pageopacity="0"
   inkscape:pageshadow="2"
   inkscape:window-width="824"
   inkscape:window-height="480"
   id="namedview29"
   showgrid="false"
   inkscape:zoom="0.38685826"
   inkscape:cx="386.0446"
   inkscape:cy="304.80877"
   inkscape:window-x="523"
   inkscape:window-y="328"
   inkscape:window-maximized="0"
   inkscape:current-layer="Capa_1" /><metadata
   id="metadata43"><rdf:RDF><cc:Work
       rdf:about=""><dc:format>image/svg+xml</dc:format><dc:type
         rdf:resource="http://purl.org/dc/dcmitype/StillImage" /><dc:title /></cc:Work></rdf:RDF></metadata><defs
   id="defs41" />
<g
   transform="translate(230.94915,-30)"
   id="g6">
	<g
   id="g4">
		<path
   id="path2"
   d="M 512,301 H 401.458 L 266.28,30 h -20.56 l -84.285,157 -378.38415,-2.16949 v 30 L 146.47,217 l -20.964,54 -342.45515,-2.16949 v 30 L 110.542,301 81.079,358 -230.94915,355.83051 v 30 L 66.114,388 30,462.466 V 482 H 482 V 462.466 L 416.423,331 H 512 Z M 256,76.6 361.609,288.32 191.46,194.016 Z M 178.024,220.954 330.901,308.365 115.99,355.222 Z M 443.254,452 H 68.746 l 31.377,-64.97 283.784,-54.005 z"
   inkscape:connector-curvature="0" />
	</g>
</g>
<g
   transform="translate(230.94915,-30)"
   id="g8">
</g>
<g
   transform="translate(230.94915,-30)"
   id="g10">
</g>
<g
   transform="translate(230.94915,-30)"
   id="g12">
</g>
<g
   transform="translate(230.94915,-30)"
   id="g14">
</g>
<g
   transform="translate(230.94915,-30)"
   id="g16">
</g>
<g
   transform="translate(230.94915,-30)"
   id="g18">
</g>
<g
   transform="translate(230.94915,-30)"
   id="g20">
</g>
<g
   transform="translate(230.94915,-30)"
   id="g22">
</g>
<g
   transform="translate(230.94915,-30)"
   id="g24">
</g>
<g
   transform="translate(230.94915,-30)"
   id="g26">
</g>
<g
   transform="translate(230.94915,-30)"
   id="g28">
</g>
<g
   transform="translate(230.94915,-30)"
   id="g30">
</g>
<g
   transform="translate(230.94915,-30)"
   id="g32">
</g>
<g
   transform="translate(230.94915,-30)"
   id="g34">
</g>
<g
   transform="translate(230.94915,-30)"
   id="g36">
</g>
<text
   id="text3750"
   y="137.42372"
   x="148.50848"
   style="font-style:normal;font-weight:normal;font-size:40px;line-height:1.25;font-family:sans-serif;letter-spacing:0px;word-spacing:0px;fill:#ffffff;fill-opacity:1;stroke:none;"
   xml:space="preserve"><tspan
     y="137.42372"
     x="148.50848"
     id="tspan3748"
     style="fill:#ffffff;">Quality</tspan></text>


<text
   id="text3754"
   y="308.81357"
   x="48.711868"
   style="font-style:normal;font-weight:normal;font-size:40px;line-height:1.25;font-family:sans-serif;letter-spacing:0px;word-spacing:0px;fill:#ffffff;fill-opacity:1;stroke:none;"
   xml:space="preserve"><tspan
     y="308.81357"
     x="48.711868"
     id="tspan3752"
     style="fill:#ffffff;">Performance</tspan></text>


<text
   id="text3758"
   y="222.03391"
   x="92.101692"
   style="font-style:normal;font-weight:normal;font-size:40px;line-height:1.25;font-family:sans-serif;letter-spacing:0px;word-spacing:0px;fill:#ffffff;fill-opacity:1;stroke:none;"
   xml:space="preserve"><tspan
     y="222.03391"
     x="92.101692"
     id="tspan3756"
     style="fill:#ffffff;">Flexibility</tspan></text>


<text
   id="text3750-0"
   y="248.4863"
   x="655.42786"
   style="font-style:normal;font-variant:normal;font-weight:normal;font-stretch:normal;font-size:40px;line-height:1.25;font-family:sans-serif;-inkscape-font-specification:'sans-serif, Normal';font-variant-ligatures:normal;font-variant-caps:normal;font-variant-numeric:normal;font-feature-settings:normal;text-align:start;letter-spacing:0px;word-spacing:0px;writing-mode:lr-tb;text-anchor:start;fill:#ffffff;fill-opacity:1;stroke:none;"
   xml:space="preserve"><tspan
     sodipodi:role="line"
     id="tspan3771"
     x="655.42786"
     y="248.4863">WebRays</tspan></text>

<path
   style="fill:#ffffff;stroke-width:2.58492613"
   d="m 261.96815,441.06286 c 0,-6.08807 6.01572,-21.09023 18.24976,-45.51173 10.03739,-20.03654 17.88911,-36.77755 17.44825,-37.20228 -0.44083,-0.42473 -67.39567,-1.62768 -148.78853,-2.67323 l -147.98701379,-1.901 v -13.25403 -13.25403 l 156.21671379,0.99176 156.21671,0.99178 14.38842,-28.68968 c 7.91362,-15.77929 14.3884,-29.29062 14.3884,-30.02515 0,-0.73454 -59.14143,-1.33553 -131.42539,-1.33553 -72.28397,0 -145.566626,-0.76036 -162.850346,-1.68972 l -31.424951,-1.68969 v -12.69408 -12.69408 l 170.431637,0.81292 170.43163,0.81292 10.59856,-26.84094 c 5.82921,-14.76251 10.09674,-27.34277 9.48337,-27.95613 -0.61335,-0.61335 -82.07694,-1.80652 -181.03019,-2.65147 L 16.400173,183.07318 V 169.2837 155.49421 l 188.273217,1.69798 188.27322,1.69797 42.43143,-79.240502 42.43144,-79.24050709 9.05871,-0.0208619 9.0587,-0.0208622 67.8396,135.70862319 67.8396,135.70861 h 55.57917 55.57914 v 14.2171 14.21709 h -47.82114 c -26.30162,0 -47.82113,0.59055 -47.82113,1.31234 0,0.72179 14.54021,30.37487 32.31158,65.89574 22.9431,45.85796 32.31157,67.21232 32.31157,73.65051 v 9.06712 H 486.85672 261.96815 Z m 413.58817,-18.08155 c 0,-0.7227 -13.38185,-28.05829 -29.73743,-60.74577 -22.01998,-44.00803 -30.90861,-59.39912 -34.25027,-59.30601 -2.48207,0.0693 -66.74494,12.02423 -142.80639,26.56676 l -138.29354,26.44103 -15.96595,32.24028 c -8.78125,17.73218 -16.05136,33.11273 -16.15579,34.17901 -0.1044,1.06628 84.72499,1.93869 188.50977,1.93869 103.78478,0 188.6996,-0.5913 188.6996,-1.31399 z M 455.8376,302.80778 c 110.73865,-23.94835 107.22212,-23.07362 104.30348,-25.94575 -1.20939,-1.19013 -35.83088,-21.367 -76.93661,-44.83749 l -74.73773,-42.67361 -6.29517,13.42891 c -28.50564,60.80849 -54.90086,119.10276 -54.90086,121.24954 0,1.42954 2.61724,1.95622 5.81608,1.17038 3.19885,-0.78587 49.43671,-10.86225 102.75081,-22.39198 z m 137.00109,-45.23183 c 0,-2.81585 -104.76341,-210.679854 -106.18259,-210.679854 -2.86167,0 -65.1414,116.464414 -63.27966,118.334264 2.44803,2.45867 165.01292,93.08782 167.52355,93.39357 1.06628,0.12976 1.9387,-0.34173 1.9387,-1.04798 z"
   id="path32"
   inkscape:connector-curvature="0" /></svg>