<?xml version="1.0" encoding="UTF-8"?>
<!-- Generator: Adobe Illustrator 16.0.0, SVG Export Plug-In . SVG Version: 6.00 Build 0)  -->
<!DOCTYPE svg PUBLIC "-//W3C//DTD SVG 1.1//EN" "http://www.w3.org/Graphics/SVG/1.1/DTD/svg11.dtd">
<svg version="1.1" id="Layer_1" xmlns="http://www.w3.org/2000/svg" xmlns:xlink="http://www.w3.org/1999/xlink" x="0px" y="0px" width="97.5px" height="53.5px" viewBox="0 0 97.5 53.5" enable-background="new 0 0 97.5 53.5" xml:space="preserve">
<g>
	<g>
		<path fill="#ED1C24" stroke="#ED1C24" stroke-miterlimit="10" d="M82.835,47.5c-3.391,1.979-7.105,2.967-11.141,2.967    c-2.22,0-4.339-0.303-6.357-0.908c-2.019-0.564-3.896-1.393-5.631-2.482c-3.23-2.018-5.813-4.723-7.75-8.113    c-1.978-3.391-2.967-7.123-2.967-11.201c0-2.18,0.303-4.277,0.908-6.297c0.565-2.018,1.393-3.895,2.482-5.631    c2.018-3.229,4.723-5.813,8.113-7.75c3.391-1.977,7.124-2.967,11.201-2.967c3.108,0,6.055,0.586,8.84,1.756    c2.745,1.211,5.146,2.846,7.205,4.904l-0.545,0.545l-1.635,1.635c-1.777-1.775-3.855-3.168-6.236-4.178    c-2.382-1.049-4.925-1.574-7.629-1.574c-1.898,0-3.714,0.264-5.449,0.787c-1.777,0.484-3.412,1.191-4.904,2.119    c-2.785,1.736-5.025,4.078-6.721,7.023c-1.695,2.906-2.543,6.115-2.543,9.627c0,1.898,0.262,3.715,0.787,5.449    c0.524,1.777,1.25,3.412,2.18,4.904c1.695,2.785,4.016,5.025,6.963,6.721c2.906,1.695,6.135,2.543,9.688,2.543    c1.695,0,3.33-0.201,4.904-0.605c1.21-0.332,2.354-0.756,3.428-1.271L82.835,47.5z M86.059,45.298    c-0.352,0.285-0.616,0.492-0.987,0.758l-2.58-1.938c0.421-0.271,0.706-0.476,1.101-0.776L86.059,45.298z M85.356,41.814    c0.824-0.809,1.578-1.698,2.262-2.67c1.776-2.461,2.906-5.207,3.391-8.234c-1.777,0-4.42,0-7.932,0c0-0.686,0-1.734,0-3.148    c1.493,0,2.26,0,2.301,0c0.081,0,1.352,0,3.814,0c0.605,0,1.332,0,2.18,0s1.836,0,2.967,0c0,2.221-0.303,4.34-0.908,6.357    c-0.566,2.02-1.393,3.896-2.482,5.631c-0.894,1.432-1.923,2.734-3.086,3.911"/>
	</g>
	<g>
		<g>
			<g>
				<path fill="#ED1C24" stroke="#ED1C24" stroke-miterlimit="10" d="M29.538,31.14c2.641-0.953,5.359-3.246,6.728-5.03      c1.689-2.202,2.416-4.727,2.416-7.603c0-3.674-1.316-6.773-4.026-9.48c-2.643-2.591-5.89-3.91-9.638-3.91h-4.46H6.349v2.736      h18.669c2.961,0,5.541,1.057,7.667,3.142c2.16,2.037,3.267,4.572,3.267,7.513c0,3.021-1.082,5.633-3.303,7.671      c-1.423,1.306-3.298,2.504-5.673,3.149"/>
			</g>
		</g>
		<path fill="#ED1C24" stroke="#ED1C24" stroke-miterlimit="10" d="M22.301,6.507H7.767v16.795l36.084,26.569l-1.995,0.133h-6.165    c-0.122,0-0.308-0.061-0.431-0.121L6.349,28.546v-0.351v-1.404l29.589,21.823h3.822L6.658,24.208    c-0.185-0.12-0.309-0.302-0.309-0.543V5.784"/>
		<path fill="#ED1C24" stroke="#ED1C24" stroke-miterlimit="10" d="M8.385,42.417"/>
		<path fill="#ED1C24" stroke="#ED1C24" stroke-miterlimit="10" d="M6.349,5.117"/>
		<polyline fill="#ED1C24" points="6.349,37.425 6.349,37.163 6.349,33.691 9.071,37.163 9.071,50.06 6.349,50.06 6.349,49.538       "/>
	</g>
</g>
</svg>